<?xml version="1.0" encoding="UTF-8"?>
<svg xmlns="http://www.w3.org/2000/svg" viewBox="0 0 4000 8162.48">
  <defs>
    <style>
      .cls-1 {
        fill: #c2c5db;
      }

      .cls-2 {
        fill: #e0e2f1;
      }

      .cls-3 {
        fill: #ea8ba2;
      }

      .cls-4 {
        fill: #fff;
      }

      .cls-5 {
        fill: #e91e63;
      }

      .cls-6 {
        fill: #f48fb1;
      }

      .cls-7 {
        fill: #ffe3e3;
      }

      .cls-8 {
        fill: #c2185b;
      }
    </style>
  </defs>
  <g id="Design" shape-rendering="crispEdges">
    <g>
      <rect class="cls-3" x="142.98" y="6554.92" width="71.4" height="1213.8"/>
      <rect class="cls-3" x="3785.38" y="6554.92" width="71.4" height="1213.8"/>
      <rect class="cls-2" x="214.38" y="7699.67" width="3571" height="71.4"/>
      <rect class="cls-3" x="214.38" y="7772.04" width="3571" height="71.4"/>
      <polygon class="cls-2" points="285.78 6447.82 428.58 6376.42 428.58 6581.74 285.78 6581.74 285.78 6447.82"/>
      <g>
        <rect class="cls-1" x="214.38" y="6483.52" width="71.4" height="71.4"/>
        <rect class="cls-1" x="285.78" y="6412.12" width="71.4" height="71.4"/>
        <rect class="cls-1" x="357.18" y="6340.72" width="71.4" height="71.4"/>
      </g>
      <polygon class="cls-2" points="3714.22 6447.82 3571.42 6376.42 3571.42 6581.74 3714.22 6581.74 3714.22 6447.82"/>
      <g>
        <rect class="cls-1" x="3714.22" y="6483.52" width="71.4" height="71.4" transform="translate(7499.84 13038.43) rotate(180)"/>
        <rect class="cls-1" x="3642.82" y="6412.12" width="71.4" height="71.4" transform="translate(7357.04 12895.63) rotate(180)"/>
        <rect class="cls-1" x="3571.42" y="6340.72" width="71.4" height="71.4" transform="translate(7214.24 12752.83) rotate(180)"/>
      </g>
      <g>
        <rect class="cls-3" x="3785.62" y="6483.52" width="71.4" height="71.4" transform="translate(7642.64 13038.43) rotate(180)"/>
        <rect class="cls-3" x="3714.22" y="6412.12" width="71.4" height="71.4" transform="translate(7499.84 12895.63) rotate(180)"/>
        <rect class="cls-3" x="3642.82" y="6340.72" width="71.4" height="71.4" transform="translate(7357.04 12752.83) rotate(180)"/>
        <rect class="cls-3" x="3577.99" y="6269.32" width="71.4" height="71.4" transform="translate(7227.39 12610.03) rotate(180)"/>
      </g>
      <g>
        <rect class="cls-3" x="146.27" y="6483.52" width="71.4" height="71.4"/>
        <rect class="cls-3" x="217.67" y="6412.12" width="71.4" height="71.4"/>
        <rect class="cls-3" x="289.07" y="6340.72" width="71.4" height="71.4"/>
        <rect class="cls-3" x="353.89" y="6269.32" width="71.4" height="71.4"/>
      </g>
      <g>
        <rect class="cls-1" x="408.73" y="713.74" width="3188.39" height="6001.68"/>
        <rect class="cls-4" x="457.27" y="778.24" width="3091.32" height="5872.68"/>
      </g>
      <rect class="cls-7" x="214.38" y="6555.13" width="3571" height="1213.59"/>
      <rect class="cls-2" x="214.38" y="6555.13" width="71.4" height="999.39"/>
      <rect class="cls-2" x="3713.98" y="6554.92" width="71.4" height="999.6"/>
      <g>
        <rect class="cls-1" x="1459.32" y="7274.71" width="71.4" height="71.4"/>
        <rect class="cls-1" x="1387.92" y="7346.11" width="71.4" height="71.4"/>
        <rect class="cls-2" x="1459.32" y="7346.11" width="71.4" height="71.4"/>
        <rect class="cls-1" x="1316.52" y="7416.04" width="71.4" height="71.4"/>
        <rect class="cls-1" x="1245.12" y="7487.44" width="71.4" height="71.4"/>
        <rect class="cls-2" x="1316.52" y="7487.44" width="71.4" height="71.4"/>
        <rect class="cls-1" x="1173.72" y="7555.89" width="71.4" height="71.4"/>
        <rect class="cls-2" x="1245.12" y="7555.89" width="71.4" height="71.4"/>
        <rect class="cls-2" x="1173.72" y="7627.29" width="71.4" height="71.4"/>
        <rect class="cls-1" x="1530.72" y="7203.31" width="71.4" height="71.4"/>
        <rect class="cls-2" x="1602.12" y="7203.31" width="71.4" height="71.4"/>
      </g>
      <g>
        <rect class="cls-1" x="2458.92" y="7274.71" width="71.4" height="71.4" transform="translate(4989.24 14620.82) rotate(180)"/>
        <rect class="cls-1" x="2530.32" y="7346.11" width="71.4" height="71.4" transform="translate(5132.04 14763.62) rotate(180)"/>
        <rect class="cls-2" x="2458.92" y="7346.11" width="71.4" height="71.4" transform="translate(4989.24 14763.62) rotate(180)"/>
        <rect class="cls-1" x="2601.72" y="7416.04" width="71.4" height="71.4" transform="translate(5274.84 14903.48) rotate(180)"/>
        <rect class="cls-1" x="2673.12" y="7487.44" width="71.4" height="71.4" transform="translate(5417.64 15046.28) rotate(180)"/>
        <rect class="cls-2" x="2601.72" y="7487.44" width="71.4" height="71.4" transform="translate(5274.84 15046.28) rotate(180)"/>
        <rect class="cls-1" x="2744.52" y="7555.89" width="71.4" height="71.4" transform="translate(5560.44 15183.19) rotate(180)"/>
        <rect class="cls-2" x="2673.12" y="7555.89" width="71.4" height="71.4" transform="translate(5417.64 15183.19) rotate(180)"/>
        <rect class="cls-2" x="2744.52" y="7627.29" width="71.4" height="71.4" transform="translate(5560.44 15325.99) rotate(180)"/>
        <rect class="cls-1" x="2387.52" y="7203.31" width="71.4" height="71.4" transform="translate(4846.44 14478.02) rotate(180)"/>
        <rect class="cls-2" x="2316.12" y="7203.31" width="71.4" height="71.4" transform="translate(4703.64 14478.02) rotate(180)"/>
      </g>
      <g>
        <rect class="cls-1" x="1459.32" y="6919.71" width="71.4" height="71.4"/>
        <rect class="cls-1" x="1387.92" y="6848.31" width="71.4" height="71.4"/>
        <rect class="cls-2" x="1459.32" y="6848.31" width="71.4" height="71.4"/>
        <rect class="cls-1" x="1316.52" y="6778.38" width="71.4" height="71.4"/>
        <rect class="cls-1" x="1245.12" y="6706.98" width="71.4" height="71.4"/>
        <rect class="cls-2" x="1316.52" y="6706.98" width="71.4" height="71.4"/>
        <rect class="cls-1" x="1173.72" y="6638.52" width="71.4" height="71.4"/>
        <rect class="cls-2" x="1245.12" y="6638.52" width="71.4" height="71.4"/>
        <rect class="cls-2" x="1173.72" y="6567.12" width="71.4" height="71.4"/>
        <rect class="cls-1" x="1530.72" y="6991.11" width="71.4" height="71.4"/>
        <rect class="cls-2" x="1602.12" y="6991.11" width="71.4" height="71.4"/>
      </g>
      <g>
        <rect class="cls-1" x="2458.92" y="6919.71" width="71.4" height="71.4" transform="translate(4989.24 13910.82) rotate(180)"/>
        <rect class="cls-1" x="2530.32" y="6848.31" width="71.4" height="71.4" transform="translate(5132.04 13768.02) rotate(180)"/>
        <rect class="cls-2" x="2458.92" y="6848.31" width="71.4" height="71.4" transform="translate(4989.24 13768.02) rotate(180)"/>
        <rect class="cls-1" x="2601.72" y="6778.38" width="71.4" height="71.4" transform="translate(5274.84 13628.16) rotate(180)"/>
        <rect class="cls-1" x="2673.12" y="6706.98" width="71.4" height="71.4" transform="translate(5417.64 13485.36) rotate(180)"/>
        <rect class="cls-2" x="2601.72" y="6706.98" width="71.4" height="71.4" transform="translate(5274.84 13485.36) rotate(180)"/>
        <rect class="cls-1" x="2744.52" y="6638.52" width="71.4" height="71.4" transform="translate(5560.44 13348.45) rotate(180)"/>
        <rect class="cls-2" x="2673.12" y="6638.52" width="71.4" height="71.4" transform="translate(5417.64 13348.45) rotate(180)"/>
        <rect class="cls-2" x="2744.52" y="6567.12" width="71.4" height="71.4" transform="translate(5560.44 13205.65) rotate(180)"/>
        <rect class="cls-1" x="2387.52" y="6991.11" width="71.4" height="71.4" transform="translate(4846.44 14053.62) rotate(180)"/>
        <rect class="cls-2" x="2316.12" y="6991.11" width="71.4" height="71.4" transform="translate(4703.64 14053.62) rotate(180)"/>
      </g>
      <g>
        <rect class="cls-8" x="1958.12" y="7483.12" width="71.4" height="71.4"/>
        <g>
          <rect class="cls-6" x="1744.92" y="6921.92" width="142.8" height="71.4"/>
          <rect class="cls-5" x="2101.92" y="6921.92" width="142.8" height="285.6"/>
          <rect class="cls-6" x="1673.52" y="6993.32" width="71.4" height="71.4"/>
          <rect class="cls-5" x="1744.92" y="6993.32" width="142.8" height="285.6"/>
          <rect class="cls-6" x="1887.72" y="6993.32" width="71.4" height="71.4"/>
          <rect class="cls-5" x="2030.52" y="6993.32" width="71.4" height="357"/>
          <rect class="cls-8" x="2244.72" y="6993.32" width="71.4" height="71.4"/>
          <rect class="cls-6" x="1602.12" y="7064.72" width="71.4" height="142.8"/>
          <rect class="cls-5" x="1887.72" y="7064.72" width="71.4" height="285.6"/>
          <rect class="cls-6" x="1959.12" y="7064.72" width="71.4" height="71.4"/>
          <rect class="cls-5" x="1959.12" y="7136.12" width="71.4" height="214.2"/>
          <rect class="cls-8" x="1673.52" y="7207.52" width="71.4" height="71.4"/>
          <rect class="cls-5" x="2101.92" y="7207.52" width="71.4" height="71.4"/>
          <rect class="cls-8" x="2173.32" y="7207.52" width="142.8" height="71.4"/>
          <rect class="cls-8" x="1744.92" y="7278.92" width="142.8" height="71.4"/>
          <rect class="cls-8" x="2101.92" y="7278.92" width="142.8" height="71.4"/>
          <rect class="cls-8" x="1887.72" y="7421.72" width="214.2" height="71.4"/>
          <rect class="cls-8" x="1810.52" y="7350.32" width="366.26" height="71.4"/>
          <rect class="cls-8" x="2244.72" y="7027.65" width="71.4" height="251.27"/>
          <rect class="cls-5" x="1673.52" y="7064.72" width="75.96" height="142.8"/>
          <rect class="cls-8" x="2316.12" y="7027.65" width="71.4" height="179.87"/>
          <rect class="cls-8" x="1673.52" y="7207.52" width="71.4" height="71.4"/>
        </g>
      </g>
    </g>
    <g>
      <rect class="cls-6" x="636.48" y="7054.82" width="171.39" height="71.4"/>
      <rect class="cls-6" x="565.08" y="7126.22" width="71.4" height="281.56"/>
      <rect class="cls-6" x="807.87" y="7126.22" width="71.4" height="281.56"/>
      <rect class="cls-6" x="636.48" y="7219.17" width="171.39" height="71.4"/>
    </g>
    <g>
      <rect class="cls-6" x="3111.39" y="7057.57" width="86.28" height="350.22"/>
      <rect class="cls-6" x="3197.67" y="7173.18" width="96.46" height="88.81"/>
      <rect class="cls-6" x="3289.04" y="7261.99" width="86.28" height="145.79"/>
      <rect class="cls-6" x="3289.04" y="7057.57" width="86.28" height="117.3"/>
    </g>
    <rect class="cls-2" x="214.38" y="7699.67" width="3571" height="71.4"/>
    <rect class="cls-2" x="214.38" y="6546.04" width="3571" height="71.4"/>
  </g>
</svg>
