<?xml version="1.0" encoding="UTF-8"?>
<svg id="Capa_1" data-name="Capa 1" xmlns="http://www.w3.org/2000/svg" viewBox="0 0 595.28 841.89">
  <defs>
    <style>
      .cls-1 {
        fill: #ffbbe2;
      }

      .cls-1, .cls-2, .cls-3 {
        fill-rule: evenodd;
      }

      .cls-2 {
        fill: #cc8629;
        stroke: #cc8629;
        stroke-miterlimit: 10;
      }
    </style>
  </defs>
  <path class="cls-2" d="M141.32,773.42h338.79v-156.91h-24.98v-78.45h26.15v-104.6h-26.15v-78.45h-52.3v-156.91h-26.15s4.08-22.07,0-26.15-92.7,0-92.7,0v26.15h-91.53v26.15h-26.15v104.6h26.15v261.51h-26.15v78.45h-52.3v52.3h27.33v52.3Z"/>
  <g>
    <polygon class="cls-1" points="428.98 459.61 455.13 459.61 455.13 485.76 428.98 485.76 428.98 459.61 428.98 459.61"/>
    <polygon class="cls-1" points="350.82 224.25 376.97 224.25 376.97 250.4 350.82 250.4 350.82 224.25 350.82 224.25"/>
    <polygon class="cls-1" points="324.67 224.25 350.82 224.25 350.82 250.4 324.67 250.4 324.67 224.25 324.67 224.25"/>
    <polygon class="cls-1" points="349.06 250.4 375.21 250.4 375.21 276.55 349.06 276.55 349.06 250.4 349.06 250.4"/>
    <polygon class="cls-1" points="324.67 250.4 350.82 250.4 350.82 276.55 324.67 276.55 324.67 250.4 324.67 250.4"/>
    <polygon class="cls-1" points="349.06 276.55 375.21 276.55 375.21 302.7 349.06 302.7 349.06 276.55 349.06 276.55"/>
    <polygon class="cls-1" points="322.91 276.55 349.06 276.55 349.06 302.7 322.91 302.7 322.91 276.55 322.91 276.55"/>
    <polygon class="cls-1" points="324.67 198.1 350.82 198.1 350.82 224.25 324.67 224.25 324.67 198.1 324.67 198.1"/>
    <polygon class="cls-1" points="349.06 302.7 375.21 302.7 375.21 328.85 349.06 328.85 349.06 302.7 349.06 302.7"/>
    <polygon class="cls-1" points="219.48 250.4 245.63 250.4 245.63 276.55 219.48 276.55 219.48 250.4 219.48 250.4"/>
    <polygon class="cls-1" points="193.33 250.4 219.48 250.4 219.48 276.55 193.33 276.55 193.33 250.4 193.33 250.4"/>
    <polygon class="cls-1" points="219.48 276.55 245.63 276.55 245.63 302.7 219.48 302.7 219.48 276.55 219.48 276.55"/>
    <polygon class="cls-1" points="193.62 276.55 219.77 276.55 219.77 302.7 193.62 302.7 193.62 276.55 193.62 276.55"/>
    <polygon class="cls-1" points="219.48 328.85 245.63 328.85 245.63 355 219.48 355 219.48 328.85 219.48 328.85"/>
    <polygon class="cls-1" points="219.48 224.25 245.63 224.25 245.63 250.4 219.48 250.4 219.48 224.25 219.48 224.25"/>
    <polygon class="cls-1" points="219.48 302.7 245.63 302.7 245.63 328.85 219.48 328.85 219.48 302.7 219.48 302.7"/>
    <polygon class="cls-1" points="272.37 459.61 298.52 459.61 298.52 485.76 272.37 485.76 272.37 459.61 272.37 459.61"/>
    <polygon class="cls-3" points="140.14 224.25 166.29 224.25 166.29 250.4 140.14 250.4 140.14 224.25 140.14 224.25"/>
    <polygon class="cls-3" points="140.14 250.4 166.29 250.4 166.29 276.55 140.14 276.55 140.14 250.4 140.14 250.4"/>
    <polygon class="cls-3" points="140.14 276.55 166.29 276.55 166.29 302.7 140.14 302.7 140.14 276.55 140.14 276.55"/>
    <polygon class="cls-3" points="140.14 302.7 166.29 302.7 166.29 328.85 140.14 328.85 140.14 302.7 140.14 302.7"/>
    <polygon class="cls-3" points="481.28 485.76 507.43 485.76 507.43 511.91 481.28 511.91 481.28 485.76 481.28 485.76"/>
    <polygon class="cls-3" points="481.28 511.91 507.43 511.91 507.43 538.06 481.28 538.06 481.28 511.91 481.28 511.91"/>
    <polygon class="cls-3" points="481.28 459.61 507.43 459.61 507.43 485.76 481.28 485.76 481.28 459.61 481.28 459.61"/>
    <polygon class="cls-3" points="481.28 433.46 507.43 433.46 507.43 459.61 481.28 459.61 481.28 433.46 481.28 433.46"/>
    <polygon class="cls-3" points="324.38 694.97 350.53 694.97 350.53 721.12 324.38 721.12 324.38 694.97 324.38 694.97"/>
    <polygon class="cls-3" points="324.38 721.12 350.53 721.12 350.53 747.27 324.38 747.27 324.38 721.12 324.38 721.12"/>
    <polygon class="cls-3" points="323.2 668.82 349.35 668.82 349.35 694.97 323.2 694.97 323.2 668.82 323.2 668.82"/>
    <polygon class="cls-3" points="192.45 381.15 218.6 381.15 218.6 407.31 192.45 407.31 192.45 381.15 192.45 381.15"/>
    <polygon class="cls-3" points="192.45 433.46 218.6 433.46 218.6 459.61 192.45 459.61 192.45 433.46 192.45 433.46"/>
    <polygon class="cls-3" points="192.45 407.31 218.6 407.31 218.6 433.46 192.45 433.46 192.45 407.31 192.45 407.31"/>
    <polygon class="cls-3" points="481.28 616.51 507.43 616.51 507.43 642.67 481.28 642.67 481.28 616.51 481.28 616.51"/>
    <polygon class="cls-3" points="481.28 642.67 507.43 642.67 507.43 668.82 481.28 668.82 481.28 642.67 481.28 642.67"/>
    <polygon class="cls-3" points="481.28 668.82 507.43 668.82 507.43 694.97 481.28 694.97 481.28 668.82 481.28 668.82"/>
    <polygon class="cls-3" points="481.28 694.97 507.43 694.97 507.43 721.12 481.28 721.12 481.28 694.97 481.28 694.97"/>
    <polygon class="cls-3" points="481.28 721.12 507.43 721.12 507.43 747.27 481.28 747.27 481.28 721.12 481.28 721.12"/>
    <polygon class="cls-3" points="192.45 747.27 218.6 747.27 218.6 773.42 192.45 773.42 192.45 747.27 192.45 747.27"/>
    <polygon class="cls-3" points="166.29 747.27 192.45 747.27 192.45 773.42 166.29 773.42 166.29 747.27 166.29 747.27"/>
    <polygon class="cls-3" points="140.14 747.27 166.29 747.27 166.29 773.42 140.14 773.42 140.14 747.27 140.14 747.27"/>
    <polygon class="cls-3" points="297.05 747.27 323.2 747.27 323.2 773.42 297.05 773.42 297.05 747.27 297.05 747.27"/>
    <polygon class="cls-3" points="427.81 747.27 453.96 747.27 453.96 773.42 427.81 773.42 427.81 747.27 427.81 747.27"/>
    <polygon class="cls-3" points="244.75 747.27 270.9 747.27 270.9 773.42 244.75 773.42 244.75 747.27 244.75 747.27"/>
    <polygon class="cls-3" points="375.5 747.27 401.66 747.27 401.66 773.42 375.5 773.42 375.5 747.27 375.5 747.27"/>
    <polygon class="cls-3" points="323.2 747.27 349.35 747.27 349.35 773.42 323.2 773.42 323.2 747.27 323.2 747.27"/>
    <polygon class="cls-3" points="453.96 747.27 480.11 747.27 480.11 773.42 453.96 773.42 453.96 747.27 453.96 747.27"/>
    <polygon class="cls-3" points="270.9 747.27 297.05 747.27 297.05 773.42 270.9 773.42 270.9 747.27 270.9 747.27"/>
    <polygon class="cls-3" points="401.66 747.27 427.81 747.27 427.81 773.42 401.66 773.42 401.66 747.27 401.66 747.27"/>
    <polygon class="cls-3" points="218.6 747.27 244.75 747.27 244.75 773.42 218.6 773.42 218.6 747.27 218.6 747.27"/>
    <polygon class="cls-3" points="349.35 747.27 375.5 747.27 375.5 773.42 349.35 773.42 349.35 747.27 349.35 747.27"/>
    <polygon class="cls-3" points="166.29 328.85 192.45 328.85 192.45 355 166.29 355 166.29 328.85 166.29 328.85"/>
    <polygon class="cls-3" points="166.29 355 192.45 355 192.45 381.15 166.29 381.15 166.29 355 166.29 355"/>
    <polygon class="cls-3" points="455.13 564.21 481.28 564.21 481.28 590.36 455.13 590.36 455.13 564.21 455.13 564.21"/>
    <polygon class="cls-3" points="455.13 590.36 481.28 590.36 481.28 616.51 455.13 616.51 455.13 590.36 455.13 590.36"/>
    <polygon class="cls-3" points="455.13 538.06 481.28 538.06 481.28 564.21 455.13 564.21 455.13 538.06 455.13 538.06"/>
    <polygon class="cls-3" points="87.84 694.97 113.99 694.97 113.99 721.12 87.84 721.12 87.84 694.97 87.84 694.97"/>
    <polygon class="cls-3" points="87.84 668.82 113.99 668.82 113.99 694.97 87.84 694.97 87.84 668.82 87.84 668.82"/>
    <polygon class="cls-3" points="140.14 198.1 166.29 198.1 166.29 224.25 140.14 224.25 140.14 198.1 140.14 198.1"/>
    <polygon class="cls-3" points="167.47 198.1 193.62 198.1 193.62 224.25 167.47 224.25 167.47 198.1 167.47 198.1"/>
    <polygon class="cls-3" points="402.83 198.1 428.98 198.1 428.98 224.25 402.83 224.25 402.83 198.1 402.83 198.1"/>
    <polygon class="cls-3" points="402.83 224.25 428.98 224.25 428.98 250.4 402.83 250.4 402.83 224.25 402.83 224.25"/>
    <polygon class="cls-3" points="402.83 328.85 428.98 328.85 428.98 355 402.83 355 402.83 328.85 402.83 328.85"/>
    <polygon class="cls-3" points="402.83 250.4 428.98 250.4 428.98 276.55 402.83 276.55 402.83 250.4 402.83 250.4"/>
    <polygon class="cls-3" points="402.83 276.55 428.98 276.55 428.98 302.7 402.83 302.7 402.83 276.55 402.83 276.55"/>
    <polygon class="cls-3" points="402.83 302.7 428.98 302.7 428.98 328.85 402.83 328.85 402.83 302.7 402.83 302.7"/>
    <polygon class="cls-3" points="349.35 145.79 375.5 145.79 375.5 171.95 349.35 171.95 349.35 145.79 349.35 145.79"/>
    <polygon class="cls-3" points="297.05 145.79 323.2 145.79 323.2 171.95 297.05 171.95 297.05 145.79 297.05 145.79"/>
    <polygon class="cls-3" points="323.2 145.79 349.35 145.79 349.35 171.95 323.2 171.95 323.2 145.79 323.2 145.79"/>
    <polygon class="cls-3" points="270.9 145.79 297.05 145.79 297.05 171.95 270.9 171.95 270.9 145.79 270.9 145.79"/>
    <polygon class="cls-3" points="270.9 171.95 297.05 171.95 297.05 198.1 270.9 198.1 270.9 171.95 270.9 171.95"/>
    <polygon class="cls-3" points="218.6 171.95 244.75 171.95 244.75 198.1 218.6 198.1 218.6 171.95 218.6 171.95"/>
    <polygon class="cls-3" points="244.75 171.95 270.9 171.95 270.9 198.1 244.75 198.1 244.75 171.95 244.75 171.95"/>
    <polygon class="cls-3" points="192.45 171.95 218.6 171.95 218.6 198.1 192.45 198.1 192.45 171.95 192.45 171.95"/>
    <polygon class="cls-3" points="402.83 433.46 428.98 433.46 428.98 459.61 402.83 459.61 402.83 433.46 402.83 433.46"/>
    <polygon class="cls-3" points="140.14 642.67 166.29 642.67 166.29 668.82 140.14 668.82 140.14 642.67 140.14 642.67"/>
    <polygon class="cls-3" points="140.14 590.36 166.29 590.36 166.29 616.51 140.14 616.51 140.14 590.36 140.14 590.36"/>
    <polygon class="cls-3" points="141.32 694.97 167.47 694.97 167.47 721.12 141.32 721.12 141.32 694.97 141.32 694.97"/>
    <polygon class="cls-3" points="140.14 668.82 166.29 668.82 166.29 694.97 140.14 694.97 140.14 668.82 140.14 668.82"/>
    <polygon class="cls-3" points="141.32 616.51 167.47 616.51 167.47 642.67 141.32 642.67 141.32 616.51 141.32 616.51"/>
    <polygon class="cls-3" points="166.29 459.61 192.45 459.61 192.45 485.76 166.29 485.76 166.29 459.61 166.29 459.61"/>
    <polygon class="cls-3" points="166.29 485.76 192.45 485.76 192.45 511.91 166.29 511.91 166.29 485.76 166.29 485.76"/>
    <polygon class="cls-3" points="166.29 511.91 192.45 511.91 192.45 538.06 166.29 538.06 166.29 511.91 166.29 511.91"/>
    <polygon class="cls-3" points="428.98 381.15 455.13 381.15 455.13 407.31 428.98 407.31 428.98 381.15 428.98 381.15"/>
    <polygon class="cls-3" points="428.98 355 455.13 355 455.13 381.15 428.98 381.15 428.98 355 428.98 355"/>
    <polygon class="cls-3" points="297.05 328.85 323.2 328.85 323.2 355 297.05 355 297.05 328.85 297.05 328.85"/>
    <polygon class="cls-3" points="192.45 538.06 218.6 538.06 218.6 564.21 192.45 564.21 192.45 538.06 192.45 538.06"/>
    <polygon class="cls-3" points="270.9 198.1 297.05 198.1 297.05 224.25 270.9 224.25 270.9 198.1 270.9 198.1"/>
    <polygon class="cls-3" points="270.9 224.25 297.05 224.25 297.05 250.4 270.9 250.4 270.9 224.25 270.9 224.25"/>
    <polygon class="cls-3" points="270.9 250.4 297.05 250.4 297.05 276.55 270.9 276.55 270.9 250.4 270.9 250.4"/>
    <polygon class="cls-3" points="270.9 276.55 297.05 276.55 297.05 302.7 270.9 302.7 270.9 276.55 270.9 276.55"/>
    <polygon class="cls-3" points="270.9 302.7 297.05 302.7 297.05 328.85 270.9 328.85 270.9 302.7 270.9 302.7"/>
    <polygon class="cls-3" points="298.22 433.46 324.38 433.46 324.38 459.61 298.22 459.61 298.22 433.46 298.22 433.46"/>
    <polygon class="cls-3" points="376.68 171.95 402.83 171.95 402.83 198.1 376.68 198.1 376.68 171.95 376.68 171.95"/>
    <polygon class="cls-3" points="350.53 459.61 376.68 459.61 376.68 485.76 350.53 485.76 350.53 459.61 350.53 459.61"/>
    <polygon class="cls-3" points="375.5 668.82 401.66 668.82 401.66 694.97 375.5 694.97 375.5 668.82 375.5 668.82"/>
    <polygon class="cls-3" points="375.5 694.97 401.66 694.97 401.66 721.12 375.5 721.12 375.5 694.97 375.5 694.97"/>
    <polygon class="cls-3" points="375.5 721.12 401.66 721.12 401.66 747.27 375.5 747.27 375.5 721.12 375.5 721.12"/>
    <polygon class="cls-3" points="115.17 642.67 141.32 642.67 141.32 668.82 115.17 668.82 115.17 642.67 115.17 642.67"/>
    <polygon class="cls-3" points="272.07 694.97 298.22 694.97 298.22 721.12 272.07 721.12 272.07 694.97 272.07 694.97"/>
    <polygon class="cls-3" points="272.07 721.12 298.22 721.12 298.22 747.27 272.07 747.27 272.07 721.12 272.07 721.12"/>
    <polygon class="cls-3" points="376.68 485.76 402.83 485.76 402.83 511.91 376.68 511.91 376.68 485.76 376.68 485.76"/>
    <polygon class="cls-3" points="166.29 564.21 192.45 564.21 192.45 590.36 166.29 590.36 166.29 564.21 166.29 564.21"/>
    <polygon class="cls-3" points="113.99 721.12 140.14 721.12 140.14 747.27 113.99 747.27 113.99 721.12 113.99 721.12"/>
    <polygon class="cls-3" points="324.38 485.76 350.53 485.76 350.53 511.91 324.38 511.91 324.38 485.76 324.38 485.76"/>
    <polygon class="cls-3" points="427.81 694.97 453.96 694.97 453.96 721.12 427.81 721.12 427.81 694.97 427.81 694.97"/>
    <polygon class="cls-3" points="427.81 721.12 453.96 721.12 453.96 747.27 427.81 747.27 427.81 721.12 427.81 721.12"/>
    <polygon class="cls-3" points="455.13 407.31 481.28 407.31 481.28 433.46 455.13 433.46 455.13 407.31 455.13 407.31"/>
  </g>
</svg>