<?xml version="1.0" encoding="UTF-8"?>
<svg id="Capa_1" data-name="Capa 1" xmlns="http://www.w3.org/2000/svg" viewBox="0 0 595.28 841.89">
  <defs>
    <style>
      .cls-1 {
        fill: #f395c7;
      }

      .cls-1, .cls-2, .cls-3 {
        fill-rule: evenodd;
      }

      .cls-3 {
        fill: #fff;
        stroke: #fff;
        stroke-miterlimit: 10;
      }
    </style>
  </defs>
  <path class="cls-3" d="M442.59,773.42H103.8v-156.91h24.98v-78.45h-26.15v-104.6h26.15v-78.45h52.3v-156.91h26.15s-4.08-22.07,0-26.15,92.7,0,92.7,0v26.15h91.53v26.15h26.15v104.6h-26.15v261.51h26.15v78.45h52.3v52.3h-27.33v52.3Z"/>
  <g>
    <polygon class="cls-1" points="154.92 459.61 128.77 459.61 128.77 485.76 154.92 485.76 154.92 459.61 154.92 459.61"/>
    <polygon class="cls-1" points="233.38 224.25 207.23 224.25 207.23 250.4 233.38 250.4 233.38 224.25 233.38 224.25"/>
    <polygon class="cls-1" points="259.53 224.25 233.38 224.25 233.38 250.4 259.53 250.4 259.53 224.25 259.53 224.25"/>
    <polygon class="cls-1" points="233.38 250.4 207.23 250.4 207.23 276.55 233.38 276.55 233.38 250.4 233.38 250.4"/>
    <polygon class="cls-1" points="259.53 250.4 233.38 250.4 233.38 276.55 259.53 276.55 259.53 250.4 259.53 250.4"/>
    <polygon class="cls-1" points="233.38 276.55 207.23 276.55 207.23 302.7 233.38 302.7 233.38 276.55 233.38 276.55"/>
    <polygon class="cls-1" points="259.53 276.55 233.38 276.55 233.38 302.7 259.53 302.7 259.53 276.55 259.53 276.55"/>
    <polygon class="cls-1" points="259.53 198.1 233.38 198.1 233.38 224.25 259.53 224.25 259.53 198.1 259.53 198.1"/>
    <polygon class="cls-1" points="233.38 302.7 207.23 302.7 207.23 328.85 233.38 328.85 233.38 302.7 233.38 302.7"/>
    <polygon class="cls-1" points="364.13 250.4 337.98 250.4 337.98 276.55 364.13 276.55 364.13 250.4 364.13 250.4"/>
    <polygon class="cls-1" points="390.29 250.4 364.13 250.4 364.13 276.55 390.29 276.55 390.29 250.4 390.29 250.4"/>
    <polygon class="cls-1" points="364.13 276.55 337.98 276.55 337.98 302.7 364.13 302.7 364.13 276.55 364.13 276.55"/>
    <polygon class="cls-1" points="390.29 276.55 364.13 276.55 364.13 302.7 390.29 302.7 390.29 276.55 390.29 276.55"/>
    <polygon class="cls-1" points="364.13 328.85 337.98 328.85 337.98 355 364.13 355 364.13 328.85 364.13 328.85"/>
    <polygon class="cls-1" points="364.13 224.25 337.98 224.25 337.98 250.4 364.13 250.4 364.13 224.25 364.13 224.25"/>
    <polygon class="cls-1" points="364.13 302.7 337.98 302.7 337.98 328.85 364.13 328.85 364.13 302.7 364.13 302.7"/>
    <polygon class="cls-1" points="311.83 459.61 285.68 459.61 285.68 485.76 311.83 485.76 311.83 459.61 311.83 459.61"/>
    <polygon class="cls-2" points="443.76 224.25 417.61 224.25 417.61 250.4 443.76 250.4 443.76 224.25 443.76 224.25"/>
    <polygon class="cls-2" points="443.76 250.4 417.61 250.4 417.61 276.55 443.76 276.55 443.76 250.4 443.76 250.4"/>
    <polygon class="cls-2" points="443.76 276.55 417.61 276.55 417.61 302.7 443.76 302.7 443.76 276.55 443.76 276.55"/>
    <polygon class="cls-2" points="443.76 302.7 417.61 302.7 417.61 328.85 443.76 328.85 443.76 302.7 443.76 302.7"/>
    <polygon class="cls-2" points="102.62 485.76 76.47 485.76 76.47 511.91 102.62 511.91 102.62 485.76 102.62 485.76"/>
    <polygon class="cls-2" points="102.62 511.91 76.47 511.91 76.47 538.06 102.62 538.06 102.62 511.91 102.62 511.91"/>
    <polygon class="cls-2" points="102.62 459.61 76.47 459.61 76.47 485.76 102.62 485.76 102.62 459.61 102.62 459.61"/>
    <polygon class="cls-2" points="102.62 433.46 76.47 433.46 76.47 459.61 102.62 459.61 102.62 433.46 102.62 433.46"/>
    <polygon class="cls-2" points="259.53 694.97 233.38 694.97 233.38 721.12 259.53 721.12 259.53 694.97 259.53 694.97"/>
    <polygon class="cls-2" points="259.53 721.12 233.38 721.12 233.38 747.27 259.53 747.27 259.53 721.12 259.53 721.12"/>
    <polygon class="cls-2" points="260.7 668.82 234.55 668.82 234.55 694.97 260.7 694.97 260.7 668.82 260.7 668.82"/>
    <polygon class="cls-2" points="391.46 381.15 365.31 381.15 365.31 407.31 391.46 407.31 391.46 381.15 391.46 381.15"/>
    <polygon class="cls-2" points="391.46 433.46 365.31 433.46 365.31 459.61 391.46 459.61 391.46 433.46 391.46 433.46"/>
    <polygon class="cls-2" points="391.46 407.31 365.31 407.31 365.31 433.46 391.46 433.46 391.46 407.31 391.46 407.31"/>
    <polygon class="cls-2" points="102.62 616.51 76.47 616.51 76.47 642.67 102.62 642.67 102.62 616.51 102.62 616.51"/>
    <polygon class="cls-2" points="102.62 642.67 76.47 642.67 76.47 668.82 102.62 668.82 102.62 642.67 102.62 642.67"/>
    <polygon class="cls-2" points="102.62 668.82 76.47 668.82 76.47 694.97 102.62 694.97 102.62 668.82 102.62 668.82"/>
    <polygon class="cls-2" points="102.62 694.97 76.47 694.97 76.47 721.12 102.62 721.12 102.62 694.97 102.62 694.97"/>
    <polygon class="cls-2" points="102.62 721.12 76.47 721.12 76.47 747.27 102.62 747.27 102.62 721.12 102.62 721.12"/>
    <polygon class="cls-2" points="391.46 747.27 365.31 747.27 365.31 773.42 391.46 773.42 391.46 747.27 391.46 747.27"/>
    <polygon class="cls-2" points="417.61 747.27 391.46 747.27 391.46 773.42 417.61 773.42 417.61 747.27 417.61 747.27"/>
    <polygon class="cls-2" points="443.76 747.27 417.61 747.27 417.61 773.42 443.76 773.42 443.76 747.27 443.76 747.27"/>
    <polygon class="cls-2" points="286.85 747.27 260.7 747.27 260.7 773.42 286.85 773.42 286.85 747.27 286.85 747.27"/>
    <polygon class="cls-2" points="156.1 747.27 129.95 747.27 129.95 773.42 156.1 773.42 156.1 747.27 156.1 747.27"/>
    <polygon class="cls-2" points="339.16 747.27 313.01 747.27 313.01 773.42 339.16 773.42 339.16 747.27 339.16 747.27"/>
    <polygon class="cls-2" points="208.4 747.27 182.25 747.27 182.25 773.42 208.4 773.42 208.4 747.27 208.4 747.27"/>
    <polygon class="cls-2" points="260.7 747.27 234.55 747.27 234.55 773.42 260.7 773.42 260.7 747.27 260.7 747.27"/>
    <polygon class="cls-2" points="129.95 747.27 103.8 747.27 103.8 773.42 129.95 773.42 129.95 747.27 129.95 747.27"/>
    <polygon class="cls-2" points="313.01 747.27 286.85 747.27 286.85 773.42 313.01 773.42 313.01 747.27 313.01 747.27"/>
    <polygon class="cls-2" points="182.25 747.27 156.1 747.27 156.1 773.42 182.25 773.42 182.25 747.27 182.25 747.27"/>
    <polygon class="cls-2" points="365.31 747.27 339.16 747.27 339.16 773.42 365.31 773.42 365.31 747.27 365.31 747.27"/>
    <polygon class="cls-2" points="234.55 747.27 208.4 747.27 208.4 773.42 234.55 773.42 234.55 747.27 234.55 747.27"/>
    <polygon class="cls-2" points="417.61 328.85 391.46 328.85 391.46 355 417.61 355 417.61 328.85 417.61 328.85"/>
    <polygon class="cls-2" points="417.61 355 391.46 355 391.46 381.15 417.61 381.15 417.61 355 417.61 355"/>
    <polygon class="cls-2" points="128.77 564.21 102.62 564.21 102.62 590.36 128.77 590.36 128.77 564.21 128.77 564.21"/>
    <polygon class="cls-2" points="128.77 590.36 102.62 590.36 102.62 616.51 128.77 616.51 128.77 590.36 128.77 590.36"/>
    <polygon class="cls-2" points="128.77 538.06 102.62 538.06 102.62 564.21 128.77 564.21 128.77 538.06 128.77 538.06"/>
    <polygon class="cls-2" points="496.06 694.97 469.91 694.97 469.91 721.12 496.06 721.12 496.06 694.97 496.06 694.97"/>
    <polygon class="cls-2" points="496.06 668.82 469.91 668.82 469.91 694.97 496.06 694.97 496.06 668.82 496.06 668.82"/>
    <polygon class="cls-2" points="443.76 198.1 417.61 198.1 417.61 224.25 443.76 224.25 443.76 198.1 443.76 198.1"/>
    <polygon class="cls-2" points="416.44 198.1 390.29 198.1 390.29 224.25 416.44 224.25 416.44 198.1 416.44 198.1"/>
    <polygon class="cls-2" points="181.08 198.1 154.92 198.1 154.92 224.25 181.08 224.25 181.08 198.1 181.08 198.1"/>
    <polygon class="cls-2" points="181.08 224.25 154.92 224.25 154.92 250.4 181.08 250.4 181.08 224.25 181.08 224.25"/>
    <polygon class="cls-2" points="181.08 328.85 154.92 328.85 154.92 355 181.08 355 181.08 328.85 181.08 328.85"/>
    <polygon class="cls-2" points="181.08 250.4 154.92 250.4 154.92 276.55 181.08 276.55 181.08 250.4 181.08 250.4"/>
    <polygon class="cls-2" points="181.08 276.55 154.92 276.55 154.92 302.7 181.08 302.7 181.08 276.55 181.08 276.55"/>
    <polygon class="cls-2" points="181.08 302.7 154.92 302.7 154.92 328.85 181.08 328.85 181.08 302.7 181.08 302.7"/>
    <polygon class="cls-2" points="234.55 145.79 208.4 145.79 208.4 171.95 234.55 171.95 234.55 145.79 234.55 145.79"/>
    <polygon class="cls-2" points="286.85 145.79 260.7 145.79 260.7 171.95 286.85 171.95 286.85 145.79 286.85 145.79"/>
    <polygon class="cls-2" points="260.7 145.79 234.55 145.79 234.55 171.95 260.7 171.95 260.7 145.79 260.7 145.79"/>
    <polygon class="cls-2" points="313.01 145.79 286.85 145.79 286.85 171.95 313.01 171.95 313.01 145.79 313.01 145.79"/>
    <polygon class="cls-2" points="313.01 171.95 286.85 171.95 286.85 198.1 313.01 198.1 313.01 171.95 313.01 171.95"/>
    <polygon class="cls-2" points="365.31 171.95 339.16 171.95 339.16 198.1 365.31 198.1 365.31 171.95 365.31 171.95"/>
    <polygon class="cls-2" points="339.16 171.95 313.01 171.95 313.01 198.1 339.16 198.1 339.16 171.95 339.16 171.95"/>
    <polygon class="cls-2" points="391.46 171.95 365.31 171.95 365.31 198.1 391.46 198.1 391.46 171.95 391.46 171.95"/>
    <polygon class="cls-2" points="181.08 433.46 154.92 433.46 154.92 459.61 181.08 459.61 181.08 433.46 181.08 433.46"/>
    <polygon class="cls-2" points="443.76 642.67 417.61 642.67 417.61 668.82 443.76 668.82 443.76 642.67 443.76 642.67"/>
    <polygon class="cls-2" points="443.76 590.36 417.61 590.36 417.61 616.51 443.76 616.51 443.76 590.36 443.76 590.36"/>
    <polygon class="cls-2" points="442.59 694.97 416.44 694.97 416.44 721.12 442.59 721.12 442.59 694.97 442.59 694.97"/>
    <polygon class="cls-2" points="443.76 668.82 417.61 668.82 417.61 694.97 443.76 694.97 443.76 668.82 443.76 668.82"/>
    <polygon class="cls-2" points="442.59 616.51 416.44 616.51 416.44 642.67 442.59 642.67 442.59 616.51 442.59 616.51"/>
    <polygon class="cls-2" points="417.61 459.61 391.46 459.61 391.46 485.76 417.61 485.76 417.61 459.61 417.61 459.61"/>
    <polygon class="cls-2" points="417.61 485.76 391.46 485.76 391.46 511.91 417.61 511.91 417.61 485.76 417.61 485.76"/>
    <polygon class="cls-2" points="417.61 511.91 391.46 511.91 391.46 538.06 417.61 538.06 417.61 511.91 417.61 511.91"/>
    <polygon class="cls-2" points="154.92 381.15 128.77 381.15 128.77 407.31 154.92 407.31 154.92 381.15 154.92 381.15"/>
    <polygon class="cls-2" points="154.92 355 128.77 355 128.77 381.15 154.92 381.15 154.92 355 154.92 355"/>
    <polygon class="cls-2" points="286.85 328.85 260.7 328.85 260.7 355 286.85 355 286.85 328.85 286.85 328.85"/>
    <polygon class="cls-2" points="391.46 538.06 365.31 538.06 365.31 564.21 391.46 564.21 391.46 538.06 391.46 538.06"/>
    <polygon class="cls-2" points="313.01 198.1 286.85 198.1 286.85 224.25 313.01 224.25 313.01 198.1 313.01 198.1"/>
    <polygon class="cls-2" points="313.01 224.25 286.85 224.25 286.85 250.4 313.01 250.4 313.01 224.25 313.01 224.25"/>
    <polygon class="cls-2" points="313.01 250.4 286.85 250.4 286.85 276.55 313.01 276.55 313.01 250.4 313.01 250.4"/>
    <polygon class="cls-2" points="313.01 276.55 286.85 276.55 286.85 302.7 313.01 302.7 313.01 276.55 313.01 276.55"/>
    <polygon class="cls-2" points="313.01 302.7 286.85 302.7 286.85 328.85 313.01 328.85 313.01 302.7 313.01 302.7"/>
    <polygon class="cls-2" points="285.68 433.46 259.53 433.46 259.53 459.61 285.68 459.61 285.68 433.46 285.68 433.46"/>
    <polygon class="cls-2" points="207.23 171.95 181.08 171.95 181.08 198.1 207.23 198.1 207.23 171.95 207.23 171.95"/>
    <polygon class="cls-2" points="233.38 459.61 207.23 459.61 207.23 485.76 233.38 485.76 233.38 459.61 233.38 459.61"/>
    <polygon class="cls-2" points="208.4 668.82 182.25 668.82 182.25 694.97 208.4 694.97 208.4 668.82 208.4 668.82"/>
    <polygon class="cls-2" points="208.4 694.97 182.25 694.97 182.25 721.12 208.4 721.12 208.4 694.97 208.4 694.97"/>
    <polygon class="cls-2" points="208.4 721.12 182.25 721.12 182.25 747.27 208.4 747.27 208.4 721.12 208.4 721.12"/>
    <polygon class="cls-2" points="468.74 642.67 442.59 642.67 442.59 668.82 468.74 668.82 468.74 642.67 468.74 642.67"/>
    <polygon class="cls-2" points="311.83 694.97 285.68 694.97 285.68 721.12 311.83 721.12 311.83 694.97 311.83 694.97"/>
    <polygon class="cls-2" points="311.83 721.12 285.68 721.12 285.68 747.27 311.83 747.27 311.83 721.12 311.83 721.12"/>
    <polygon class="cls-2" points="207.23 485.76 181.08 485.76 181.08 511.91 207.23 511.91 207.23 485.76 207.23 485.76"/>
    <polygon class="cls-2" points="417.61 564.21 391.46 564.21 391.46 590.36 417.61 590.36 417.61 564.21 417.61 564.21"/>
    <polygon class="cls-2" points="469.91 721.12 443.76 721.12 443.76 747.27 469.91 747.27 469.91 721.12 469.91 721.12"/>
    <polygon class="cls-2" points="259.53 485.76 233.38 485.76 233.38 511.91 259.53 511.91 259.53 485.76 259.53 485.76"/>
    <polygon class="cls-2" points="156.1 694.97 129.95 694.97 129.95 721.12 156.1 721.12 156.1 694.97 156.1 694.97"/>
    <polygon class="cls-2" points="156.1 721.12 129.95 721.12 129.95 747.27 156.1 747.27 156.1 721.12 156.1 721.12"/>
    <polygon class="cls-2" points="128.77 407.31 102.62 407.31 102.62 433.46 128.77 433.46 128.77 407.31 128.77 407.31"/>
  </g>
</svg>