<svg id="Layer_1" enable-background="new 0 0 512 512" viewBox="0 0 512 512" xmlns="http://www.w3.org/2000/svg" width="300" height="300" version="1.1" xmlns:xlink="http://www.w3.org/1999/xlink" xmlns:svgjs="http://svgjs.dev/svgjs"><g width="100%" height="100%" transform="matrix(1,0,0,1,0,0)"><g id="_x33_7_flag_00000103982337426243547780000010827842939892873361_"><g><path d="m512 0v361.41h-60.24v30.12h-60.23v30.12h-180.71v-30.12h-60.23v-30.12h-60.24v120.47h-30.11v30.12h-30.12v-30.12h-30.12v-451.76h30.12v-30.12h120.47v30.12h60.23v30.12h180.71v-30.12h60.23v-30.12z" fill="#000133" fill-opacity="1" data-original-color="#000000ff" stroke="none" stroke-opacity="1"/></g><g><path d="m45.18 45.18 15.06 15.06v421.64h-30.12v-421.64z" fill="#8e562f" fill-opacity="1" data-original-color="#8e562fff" stroke="none" stroke-opacity="1"/><g><path d="m481.88 60.24v240.94l-30.12 30.11-60.23 30.12-11.441 15.06-153.7-.476-15.569-14.584-60.23-30.12-60.24-30.11v-240.94l9.95-15.06h35.23l15.06 15.06 60.23 30.11 15.812 15.06h150.392l14.506-15.06 60.23-30.11 15.06-15.06z" fill="#ffc1d1" fill-opacity="1" data-original-color="#ecc372ff" stroke="none" stroke-opacity="1"/></g><path d="m391.53 180.71v60.23h-30.12v30.12h-30.12v30.12h-30.11v30.11h-30.12v-30.11h-30.12v-30.12h-30.12v-30.12h-30.11v-60.23h30.11v-30.12h60.24v30.12h30.12v-30.12h60.23v30.12z" fill="#952a3a" fill-opacity="1" data-original-color="#952a3aff" stroke="none" stroke-opacity="1"/><path d="m348.54 195.765 12.87 15.055v30.12h-30.12v30.12h-30.11v30.12h-30.12v-30.12h-30.12v-30.12h-30.12v-30.12l14.446-15.055h33.901l11.893 15.055 15.055 15.06 15.065-15.06 15.001-15.055z" fill="#ff6379" fill-opacity="1" data-original-color="#ff6379ff" stroke="none" stroke-opacity="1"/></g><g><path d="m30.12 30.12h30.12v30.12h-30.12z" fill="#c8875b" fill-opacity="1" data-original-color="#c8875bff" stroke="none" stroke-opacity="1"/><g fill="#ffe8cb"><path d="m210.82 90.35h180.71v30.12h-180.71z" fill="#ff7698" fill-opacity="1" data-original-color="#ffe8cbff" stroke="none" stroke-opacity="1"/><path d="m391.53 60.24h60.23v30.11h-60.23z" fill="#ff7698" fill-opacity="1" data-original-color="#ffe8cbff" stroke="none" stroke-opacity="1"/><path d="m150.59 60.24h60.23v30.11h-60.23z" fill="#ff7698" fill-opacity="1" data-original-color="#ffe8cbff" stroke="none" stroke-opacity="1"/><path d="m90.35 30.12h60.24v30.12h-60.24z" fill="#ff7698" fill-opacity="1" data-original-color="#ffe8cbff" stroke="none" stroke-opacity="1"/><path d="m451.76 30.12h30.12v30.12h-30.12z" fill="#ff7698" fill-opacity="1" data-original-color="#ffe8cbff" stroke="none" stroke-opacity="1"/></g><path d="m271.06 210.82h30.12v30.12h-30.12z" fill="#ffa6b2" fill-opacity="1" data-original-color="#ffa6b2ff" stroke="none" stroke-opacity="1"/><path d="m301.18 180.71h60.23v30.11h-60.23z" fill="#ffa6b2" fill-opacity="1" data-original-color="#ffa6b2ff" stroke="none" stroke-opacity="1"/><path d="m210.82 180.71h60.24v30.11h-60.24z" fill="#ffa6b2" fill-opacity="1" data-original-color="#ffa6b2ff" stroke="none" stroke-opacity="1"/><path d="m391.53 331.29h60.23v30.12h-60.23z" fill="#ff7988" fill-opacity="1" data-original-color="#bc904fff" stroke="none" stroke-opacity="1"/><path d="m210.82 361.41h180.71v30.12h-180.71z" fill="#ff7988" fill-opacity="1" data-original-color="#bc904fff" stroke="none" stroke-opacity="1"/><path d="m451.76 301.18h30.12v30.11h-30.12z" fill="#ff7988" fill-opacity="1" data-original-color="#bc904fff" stroke="none" stroke-opacity="1"/><path d="m150.59 331.29h60.23v30.12h-60.23z" fill="#ff7988" fill-opacity="1" data-original-color="#bc904fff" stroke="none" stroke-opacity="1"/><path d="m90.35 301.18h60.24v30.11h-60.24z" fill="#ff7988" fill-opacity="1" data-original-color="#bc904fff" stroke="none" stroke-opacity="1"/></g></g><g/><g/><g/><g/><g/><g/><g/><g/><g/><g/><g/><g/><g/><g/><g/></g></svg>